<svg width="41" height="41" viewBox="0 0 41 41" fill="none" xmlns="http://www.w3.org/2000/svg">
<path d="M3.02916 5.1929C3.02916 2.44023 5.2601 0.20929 8.01277 0.20929H20.4718C23.2206 0.20929 25.4554 2.44023 25.4554 5.1929V20.1437H26.0784C29.8628 20.1437 32.9308 23.2118 32.9308 26.9962V29.488C32.9308 30.5237 33.764 31.3569 34.7997 31.3569C35.8353 31.3569 36.6685 30.5237 36.6685 29.488V17.4261C34.5194 16.9433 32.9308 14.9888 32.9308 12.6683V7.68471L30.439 5.1929C29.7538 4.50454 29.7538 3.38946 30.439 2.7011C31.1243 2.01273 32.2456 2.01273 32.9308 2.7011L38.9501 8.72036C39.8845 9.65479 40.4062 10.9163 40.4062 12.24V29.488C40.4062 32.5872 37.8989 35.0946 34.7997 35.0946C31.7005 35.0946 29.1931 32.5872 29.1931 29.488V26.9962C29.1931 25.2753 27.7993 23.8114 26.0784 23.8114H25.4554V35.0946C26.8337 35.0946 27.9472 36.2081 27.9472 37.5864C27.9472 38.9647 26.8337 40.0782 25.4554 40.0782H3.02916C1.65322 40.0782 0.537354 38.9647 0.537354 37.5864C0.537354 36.2081 1.65322 35.0946 3.02916 35.0946V5.1929ZM8.01277 13.9142C8.01277 14.5995 8.57343 15.1601 9.25867 15.1601H19.2259C19.9111 15.1601 20.4718 14.5995 20.4718 13.9142V6.4388C20.4718 5.75044 19.9111 5.1929 19.2259 5.1929H9.25867C8.57343 5.1929 8.01277 5.75044 8.01277 6.4388V13.9142Z" fill="url(#paint0_linear_0_162)"/>
<defs>
<linearGradient id="paint0_linear_0_162" x1="20.4718" y1="0.20929" x2="20.4718" y2="40.0782" gradientUnits="userSpaceOnUse">
<stop stop-color="#21429B"/>
<stop offset="1" stop-color="#4BB6E7"/>
</linearGradient>
</defs>
</svg>
