<svg width="45" height="45" viewBox="0 0 45 45" fill="none" xmlns="http://www.w3.org/2000/svg">
<path d="M44.2948 24.3535V20.3573H38.1607C37.8003 17.5165 36.6822 14.8249 34.9238 12.5648L39.2996 8.2289L36.4423 5.37163L32.1064 9.74745C29.8463 7.98896 27.1548 6.87092 24.3139 6.51054V0.376404H20.3177V6.51054C17.4804 6.8702 14.783 7.98913 12.5251 9.74745L8.18929 5.37163L5.33202 8.2289L9.70784 12.5648C7.94935 14.8249 6.83131 17.5165 6.47093 20.3573H0.336792V24.3535H6.47093C6.83059 27.1908 7.94952 29.8882 9.70784 32.1461L5.33202 36.4819L8.18929 39.3392L12.5251 34.9634C14.783 36.7217 17.4804 37.8406 20.3177 38.2003V44.3344H24.3139V38.2003C27.1512 37.8406 29.8486 36.7217 32.1064 34.9634L36.4423 39.3392L39.2996 36.4819L34.9238 32.1461C36.6822 29.886 37.8003 27.1944 38.1607 24.3535H44.2948ZM22.3158 14.363C20.1961 14.363 18.1632 15.2051 16.6643 16.704C15.1655 18.2028 14.3234 20.2357 14.3234 22.3554H10.3272C10.3272 19.1758 11.5903 16.1265 13.8386 13.8782C16.0869 11.6299 19.1362 10.3669 22.3158 10.3669V14.363Z" fill="url(#paint0_linear_0_161)"/>
<defs>
<linearGradient id="paint0_linear_0_161" x1="22.3158" y1="0.376404" x2="22.3158" y2="44.3344" gradientUnits="userSpaceOnUse">
<stop stop-color="#22449C"/>
<stop offset="1" stop-color="#4BB6E7"/>
</linearGradient>
</defs>
</svg>
