<svg width="41" height="41" viewBox="0 0 41 41" fill="none" xmlns="http://www.w3.org/2000/svg">
<rect width="41" height="41" fill="#F5F5F5"/>
<g clip-path="url(#clip0_0_1)">
<rect width="1930" height="14651" transform="translate(-230 -6961)" fill="white"/>
<rect x="-231" y="-6150" width="1930" height="12752" fill="#ECEFFE"/>
<rect x="-64.9074" y="-220.907" width="506.954" height="663.363" rx="8.37051" fill="white" stroke="url(#paint0_linear_0_1)" stroke-width="4.18526"/>
<circle cx="20.4048" cy="20.8134" r="19.9344" fill="url(#paint1_linear_0_1)"/>
<path fill-rule="evenodd" clip-rule="evenodd" d="M10.4626 27.819C9.47429 26.8945 8.66105 26.1199 8.65543 26.0977C8.64676 26.0634 12.2372 22.6948 12.3231 22.6567C12.3397 22.6493 12.3533 23.0445 12.3533 23.535C12.3533 24.3464 12.3593 24.4294 12.419 24.4557C12.4551 24.4717 12.7715 24.4847 13.1221 24.4847C13.6257 24.4847 13.8135 24.469 14.016 24.4099C14.7304 24.2015 15.1702 23.8995 15.8378 23.1588C16.1001 22.8679 16.7889 22.1035 17.3684 21.4603C17.9479 20.8172 19.3896 19.2549 20.5722 17.9886C22.8617 15.537 23.0025 15.4045 23.6904 15.0534C24.375 14.7041 24.6827 14.6423 26.1348 14.5625C26.7742 14.5274 27.335 14.4905 27.381 14.4807C27.4639 14.463 27.4647 14.4558 27.4747 13.6131L27.4848 12.7635L29.3143 14.4663C30.3206 15.4029 31.139 16.1821 31.1331 16.198C31.1272 16.2139 30.2913 17.0005 29.2755 17.946L27.4286 19.665V18.8032V17.9413L27.1942 17.9174C27.0653 17.9042 26.6814 17.8818 26.3411 17.8675C25.8338 17.8461 25.6784 17.8533 25.4786 17.9072C25.1434 17.9977 24.7498 18.2147 24.5035 18.4448C24.3899 18.5508 23.6137 19.3842 22.7784 20.2968C21.9431 21.2094 20.2641 23.0156 19.0472 24.3106C16.6585 26.8526 16.5293 26.9728 15.8469 27.2885C15.2229 27.5773 14.7832 27.6566 13.3031 27.7473C12.8046 27.7779 12.3785 27.815 12.3563 27.8298C12.3295 27.8476 12.3158 28.1351 12.3158 28.6809C12.3158 29.1343 12.3032 29.504 12.2877 29.5026C12.2723 29.5011 11.4509 28.7435 10.4626 27.819ZM27.4661 27.9845C27.4661 27.4754 27.4577 27.0498 27.4475 27.0388C27.4373 27.0278 27.2896 27.0452 27.1194 27.0775C26.6443 27.1675 25.5124 27.163 25.066 27.0693C23.8197 26.8076 22.8223 26.1827 21.766 25.0018C21.394 24.5859 20.716 23.7101 20.716 23.6455C20.716 23.5894 22.9008 21.435 22.9267 21.4657C22.943 21.4849 23.1075 21.6916 23.2924 21.9249C24.3828 23.3013 25.1427 23.8293 26.1161 23.8871C26.4909 23.9094 27.0273 23.8199 27.3255 23.6853L27.4661 23.6219V22.8536C27.4661 22.4311 27.4746 22.0854 27.485 22.0854C27.5193 22.0854 31.1412 25.474 31.1388 25.5039C31.1366 25.5316 27.6921 28.7377 27.5386 28.8549C27.4676 28.9091 27.4661 28.8916 27.4661 27.9845ZM16.4839 19.36C16.291 19.1276 15.9906 18.7521 15.8162 18.5254C15.4409 18.0375 15.2743 17.871 14.9221 17.6317C14.3169 17.2204 13.5147 17.0862 12.5302 17.2312L12.3547 17.2571L12.3446 18.1524L12.3346 19.0476L10.497 17.3366C9.4864 16.3955 8.65464 15.6116 8.64871 15.5946C8.64275 15.5775 9.46964 14.7897 10.4862 13.8437L12.3346 12.1238L12.3446 13.0746C12.354 13.9546 12.3595 14.0238 12.4196 14.0043C12.6098 13.943 13.3622 13.8918 13.7617 13.9131C15.0933 13.9841 16.2082 14.4815 17.3713 15.5233C17.7056 15.8228 18.371 16.5606 18.7511 17.0532L19.0532 17.4448L17.9618 18.6158C17.3616 19.2599 16.8624 19.7859 16.8526 19.7847C16.8427 19.7835 16.6768 19.5924 16.4839 19.36Z" fill="white"/>
</g>
<defs>
<linearGradient id="paint0_linear_0_1" x1="188.57" y1="-223" x2="188.57" y2="444.548" gradientUnits="userSpaceOnUse">
<stop stop-color="#3577BD"/>
<stop offset="1" stop-color="#3577BD" stop-opacity="0"/>
</linearGradient>
<linearGradient id="paint1_linear_0_1" x1="20.4048" y1="0.878967" x2="20.4048" y2="40.7479" gradientUnits="userSpaceOnUse">
<stop stop-color="#21439C"/>
<stop offset="1" stop-color="#4BB6E8"/>
</linearGradient>
<clipPath id="clip0_0_1">
<rect width="1930" height="14651" fill="white" transform="translate(-230 -6961)"/>
</clipPath>
</defs>
</svg>
