<svg width="63" height="64" viewBox="0 0 63 64" fill="none" xmlns="http://www.w3.org/2000/svg">
<path d="M8.97953 9.39933C8.97953 7.0295 9.92094 4.75673 11.5967 3.081C13.2724 1.40528 15.5452 0.463867 17.915 0.463867C20.2848 0.463867 22.5576 1.40528 24.2333 3.081C25.909 4.75673 26.8505 7.0295 26.8505 9.39933C26.8505 11.7692 25.909 14.0419 24.2333 15.7177C22.5576 17.3934 20.2848 18.3348 17.915 18.3348C15.5452 18.3348 13.2724 17.3934 11.5967 15.7177C9.92094 14.0419 8.97953 11.7692 8.97953 9.39933ZM39.2663 16.4762L39.4539 16.6192C41.3495 18.0243 43.724 18.6226 46.0591 18.2835C48.3942 17.9443 50.5004 16.6953 51.918 14.809C53.3356 12.9227 53.9496 10.5522 53.6259 8.21493C53.3022 5.87763 52.0671 3.76325 50.1902 2.33322C48.3133 0.903189 45.9469 0.273616 43.6075 0.581892C41.2681 0.890168 39.1456 2.11126 37.7033 3.9787C36.2609 5.84613 35.6157 8.20828 35.9085 10.5497C36.2013 12.891 37.4084 15.0215 39.2663 16.4762ZM23.5801 22.8025C24.1412 21.7399 24.9109 20.8014 25.8432 20.0432C26.7754 19.285 27.851 18.7225 29.0056 18.3896C30.1602 18.0567 31.3702 17.96 32.563 18.1055C33.7558 18.2509 34.907 18.6355 35.9478 19.2361C36.9886 19.8368 37.8975 20.6412 38.6202 21.6012C39.3429 22.5613 39.8646 23.6572 40.1539 24.8235C40.4433 25.9898 40.4944 27.2025 40.3043 28.389C40.1142 29.5756 39.6867 30.7116 39.0474 31.729C37.8175 33.6865 35.8768 35.0911 33.6331 35.6478C31.3894 36.2044 29.0172 35.8699 27.015 34.7143C25.0128 33.5588 23.5363 31.6722 22.8958 29.451C22.2552 27.2298 22.5005 24.8467 23.5801 22.8025ZM6.74566 22.8025H18.6745C17.8805 25.0702 17.7078 27.509 18.1745 29.8659C18.6411 32.2227 19.7301 34.4118 21.3283 36.2057H20.1489C17.8455 36.2054 15.5982 36.9169 13.7148 38.2429C11.8314 39.5689 10.4037 41.4446 9.62735 43.6132C8.12768 43.0108 6.72354 42.1936 5.45896 41.1872C2.09922 38.4843 0.0440674 34.4901 0.0440674 29.5041C0.0440674 27.7267 0.750127 26.0222 2.00692 24.7654C3.26371 23.5086 4.96829 22.8025 6.74566 22.8025ZM42.4875 36.2057C44.7903 36.2057 47.0368 36.9174 48.9195 38.2434C50.8022 39.5694 52.229 41.445 53.0045 43.6132C54.5236 42.9922 55.9309 42.1835 57.1774 41.1872C60.5371 38.4843 62.5923 34.4901 62.5923 29.5041C62.5923 27.7267 61.8862 26.0222 60.6294 24.7654C59.3727 23.5086 57.6681 22.8025 55.8907 22.8025H43.9619C44.4533 24.2009 44.7214 25.7065 44.7214 27.2703C44.7255 30.5679 43.5097 33.7506 41.308 36.2057H42.4875ZM48.6842 44.8195C49.0104 45.6058 49.1891 46.4726 49.1891 47.375C49.1891 52.361 47.1384 56.3552 43.7742 59.0582C40.4636 61.7165 36.0227 63.0121 31.3182 63.0121C26.6137 63.0121 22.1727 61.7165 18.8621 59.0582C15.5024 56.3552 13.4473 52.361 13.4473 47.375C13.4449 46.4943 13.6166 45.6218 13.9526 44.8077C14.2885 43.9935 14.7821 43.2538 15.4049 42.631C16.0276 42.0083 16.7673 41.5147 17.5815 41.1788C18.3956 40.8428 19.2681 40.6711 20.1489 40.6734H42.4875C43.8149 40.6731 45.1125 41.067 46.2157 41.8052C47.3189 42.5433 48.1781 43.5924 48.6842 44.8195Z" fill="white"/>
</svg>
