<svg width="60" height="51" viewBox="0 0 60 51" fill="none" xmlns="http://www.w3.org/2000/svg">
<path d="M28.855 50.7073C28.3201 50.7041 27.7927 50.5815 27.3113 50.3483C26.7623 50.0248 26.3232 49.5438 26.0511 48.9676C25.7791 48.3914 25.6865 47.7467 25.7855 47.1172V35.0906L6.34541 49.9534C5.82937 50.3619 5.20812 50.6159 4.55366 50.6857C3.8992 50.7556 3.23834 50.6386 2.64766 50.3483C2.0468 50.0497 1.54163 49.5887 1.18945 49.0176C0.837279 48.4465 0.652192 47.7882 0.655187 47.1172V4.03669C0.652192 3.36575 0.837279 2.70739 1.18945 2.13629C1.54163 1.56519 2.0468 1.10422 2.64766 0.805652C3.2378 0.513162 3.89909 0.39496 4.55401 0.464904C5.20893 0.534847 5.83035 0.790036 6.34541 1.20056L25.7855 16.0454V4.03669C25.6903 3.41002 25.7847 2.7692 26.0566 2.19662C26.3285 1.62404 26.7655 1.14588 27.3113 0.823602C27.9014 0.531112 28.5627 0.412911 29.2176 0.482854C29.8725 0.552797 30.494 0.807986 31.009 1.21851L58.5088 22.7588C58.9379 23.0946 59.2849 23.5237 59.5235 24.0135C59.7622 24.5033 59.8862 25.0411 59.8862 25.5859C59.8862 26.1308 59.7622 26.6685 59.5235 27.1584C59.2849 27.6482 58.9379 28.0773 58.5088 28.4131L31.009 49.9534C30.3921 50.4323 29.6359 50.697 28.855 50.7073Z" fill="white"/>
</svg>
