<svg width="101" height="73" viewBox="0 0 101 73" fill="none" xmlns="http://www.w3.org/2000/svg">
<path fill-rule="evenodd" clip-rule="evenodd" d="M18.5695 0.295079C18.1959 0.427915 17.4318 0.941662 16.8711 1.43694C15.9508 2.25022 15.8516 2.74462 15.847 6.5489L15.8421 10.7609L12.3994 12.5168C8.38119 14.5656 7.69955 15.3459 7.69955 17.8966V19.7779H3.84978H0L0.00724611 41.0008C0.0149457 62.1524 0.0181159 62.2293 1.0263 63.9373C2.44936 66.3472 4.57399 67.3756 7.71993 67.1772C10.6163 66.9947 12.1716 66.0688 13.5566 63.7033C14.3841 62.29 14.4933 61.3642 14.4933 55.7525C14.4933 49.6826 14.5395 49.3588 15.5413 48.4448C16.2732 47.7776 17.1623 47.4886 18.4853 47.4886H20.3812V56.7048C20.3812 62.9133 20.5578 66.2975 20.9224 67.0743C22.0071 69.3866 22.7055 69.4812 38.7233 69.4812H53.4874L51.8338 67.8317C49.8365 65.8401 48.1362 62.7123 47.739 60.3001C47.4786 58.7189 47.5982 58.3762 48.8251 57.1847C50.1087 55.9381 50.4312 55.8458 53.4978 55.8458H56.7919L54.7719 54.6019C52.0014 52.8952 49.1259 49.6073 48.2694 47.1657C47.254 44.2715 47.3577 40.1193 48.5208 37.1001C49.4764 34.6194 52.4181 31.2633 55.4173 29.2316L56.7113 28.355L40.4376 28.4936C27.1405 28.6066 24.0706 28.5226 23.653 28.0339C22.8772 27.1261 21.9736 6.70944 22.6729 5.89088C23.1213 5.3657 26.1694 5.26277 41.2338 5.26277C51.1468 5.26277 59.595 5.38857 60.0076 5.54208C60.6851 5.79455 60.7259 6.64039 60.4333 14.3391L60.1095 22.8569H63.2781H66.4467L66.689 13.0701C66.9589 2.17369 66.7963 1.33093 64.26 0.4719C62.7758 -0.0304109 19.9536 -0.196235 18.5695 0.295079ZM16.0114 18.1284C16.1686 19.3987 16.299 22.6774 16.3009 25.415C16.3031 28.3475 16.5214 30.7869 16.8317 31.353C17.5065 32.5833 18.5817 33.3816 19.5886 33.3992C20.2947 33.412 20.3812 33.9425 20.3812 38.2517V43.0901H18.3725C15.7578 43.0901 14.1531 43.7063 12.3374 45.4068C10.3446 47.2735 9.96956 48.9031 9.96684 55.7046C9.96367 62.1057 9.66928 62.8834 7.24664 62.8834C4.55995 62.8834 4.52915 62.7255 4.52915 49.0144V36.5279L8.26569 36.3999L12.0022 36.2723L12.2287 26.9176L12.4552 17.5632L13.8139 16.6941C14.5612 16.216 15.2972 15.8236 15.4494 15.8223C15.6016 15.8205 15.8543 16.8582 16.0114 18.1284ZM61.8985 26.6691C61.7323 26.83 61.5964 27.8052 61.5964 28.8358C61.5964 30.6682 61.5439 30.7333 59.2186 31.7713C54.2116 34.0067 51.4566 37.7938 51.4706 42.4215C51.4892 48.67 56.3711 52.7505 65.4462 54.1035C69.954 54.7756 71.2983 55.6338 71.4731 57.9518C71.5845 59.4284 71.3921 60.0081 70.5048 60.8698C68.4264 62.8882 64.0838 62.9006 61.8546 60.8944C60.7336 59.8854 60.3074 59.8044 56.1075 59.8044C51.6119 59.8044 51.5739 59.8132 51.8855 60.7941C52.866 63.881 55.9875 67.022 59.45 68.4053C61.5303 69.2362 61.5932 69.3158 61.5946 71.1306L61.5964 73H65.8991H70.2018V71.0756C70.2018 69.3299 70.3173 69.128 71.4473 68.9019C73.3034 68.5298 76.7088 66.2685 78.1215 64.4699C80.8018 61.0571 81.3824 56.5099 79.5654 53.1657C77.5916 49.5343 74.894 48.1668 65.4462 46.0076C61.5765 45.1231 59.9935 43.7274 60.4333 41.5888C61.0185 38.7439 64.4815 37.0021 67.7887 37.8888C69.6257 38.3814 71.5605 40.18 71.5605 41.3949C71.5605 42.1347 71.9813 42.2104 76.0897 42.2104C80.4861 42.2104 80.6188 42.1813 80.6143 41.2207C80.6003 38.0071 76.1028 32.7557 72.3196 31.5351C70.455 30.9334 70.4264 30.893 70.2915 28.6502L70.1542 26.3757H66.1772C63.9901 26.3757 62.0643 26.5076 61.8985 26.6691ZM78.6727 30.6651C78.0137 30.812 78.2415 31.174 79.8665 32.5631C82.5297 34.8397 84.4926 37.8936 85.3518 41.0975C86.3953 44.9876 86.4904 44.8495 82.7724 44.8495H79.4911L85.0343 50.2328L90.578 55.6166L95.7887 50.5702C98.6548 47.7943 101 45.3549 101 45.149C101 44.9432 99.6924 44.8407 98.095 44.922L95.1896 45.0694L94.9042 43.3285C93.8263 36.7597 88.0661 31.4876 81.0717 30.6691C80.1999 30.567 79.1201 30.5653 78.6727 30.6651Z" fill="white"/>
</svg>
