<svg width="68" height="60" viewBox="0 0 68 60" fill="none" xmlns="http://www.w3.org/2000/svg">
<path d="M64.3851 1.23265C63.7335 -0.206955 61.8718 -0.264539 61.0922 1.09445C57.4851 7.30201 51.0272 11.1717 43.6501 11.1717H34.3414C22.0074 11.1717 12.0006 21.0761 12.0006 33.284C12.0006 34.0901 12.0937 34.8618 12.1752 35.6449C19.5988 30.3817 30.3154 25.9132 45.5118 25.9132C46.5357 25.9132 47.3735 26.7424 47.3735 27.7559C47.3735 28.7694 46.5357 29.5986 45.5118 29.5986C16.2593 29.5986 3.85556 47.346 1.1095 54.0142C0.341538 55.8915 1.24913 58.0336 3.14577 58.8052C5.05404 59.5884 7.21831 58.6786 8.00954 56.8128C8.18408 56.3982 10.4414 51.2963 16.3757 46.3786C20.1457 51.4345 27.3134 56.26 36.7267 55.2696C54.995 53.9567 67.8526 37.741 67.8526 17.886C67.8526 12.1045 66.5959 6.11578 64.3851 1.23265Z" fill="white"/>
</svg>
