<svg width="61" height="79" viewBox="0 0 61 79" fill="none" xmlns="http://www.w3.org/2000/svg">
<path d="M30.3446 0.226562C17.815 0.226562 7.72673 10.1903 7.72673 22.5652V26.2883C3.58012 26.2883 0.187439 29.6391 0.187439 33.7345V70.9656C0.187439 75.0611 3.58012 78.4118 7.72673 78.4118H52.9625C57.1091 78.4118 60.5018 75.0611 60.5018 70.9656V33.7345C60.5018 29.6391 57.1091 26.2883 52.9625 26.2883V22.5652C52.9625 10.1903 42.8742 0.226562 30.3446 0.226562ZM30.3446 7.67278C38.9251 7.67278 45.4232 14.0907 45.4232 22.5652V26.2883H15.266V22.5652C15.266 14.0907 21.7642 7.67278 30.3446 7.67278ZM30.3446 44.9039C34.4912 44.9039 37.8839 48.2547 37.8839 52.3501C37.8839 56.4455 34.4912 59.7963 30.3446 59.7963C26.198 59.7963 22.8053 56.4455 22.8053 52.3501C22.8053 48.2547 26.198 44.9039 30.3446 44.9039Z" fill="white"/>
</svg>
