<svg width="81" height="81" viewBox="0 0 81 81" fill="none" xmlns="http://www.w3.org/2000/svg">
<path fill-rule="evenodd" clip-rule="evenodd" d="M38.7061 0.456751C35.1402 1.41638 32.859 4.3556 32.859 7.99029C32.859 11.205 34.8058 14.1362 37.6129 15.1478L38.2022 15.3603V17.8821V20.404H40.5596H42.9169V17.863V15.3221L43.3632 15.224C43.8713 15.1125 45.2926 14.2187 45.9542 13.5947C46.1984 13.3643 46.6752 12.762 47.0134 12.2565C49.1209 9.10721 48.515 4.5968 45.6531 2.1282C43.7621 0.497135 41.0133 -0.164248 38.7061 0.456751ZM15.0837 10.1704C14.5128 10.372 13.7349 10.7507 13.355 11.0122C12.5498 11.5664 11.384 12.7828 10.905 13.5686C9.5758 15.7493 9.57548 19.2395 10.9041 21.4254C11.4059 22.2508 12.6873 23.5571 13.5083 24.08C15.344 25.2493 18.0846 25.556 20.1295 24.8212L21.151 24.4542L22.8997 26.1786L24.6483 27.9028L26.3352 26.2161L28.0221 24.5294L26.2885 22.781L24.555 21.0325L24.8782 20.2469C25.1075 19.6898 25.223 18.9811 25.2754 17.8113C25.3384 16.4032 25.2989 16.0116 25.0058 15.14C24.2092 12.77 22.4687 10.9902 20.1463 10.1704C19.3379 9.88519 18.7773 9.80395 17.615 9.80395C16.4527 9.80395 15.8921 9.88519 15.0837 10.1704ZM60.9728 10.1704C60.4019 10.372 59.6239 10.7507 59.2441 11.0122C58.4388 11.5664 57.2731 12.7828 56.7941 13.5686C55.7454 15.2891 55.4803 18.0671 56.179 20.0112L56.5461 21.0325L54.8179 22.7846L53.0896 24.5368L54.7765 26.2235L56.4634 27.9102L58.2158 26.1822L59.9681 24.4542L60.9896 24.8212C63.0345 25.556 65.7751 25.2493 67.6108 24.08C68.4318 23.5571 69.7133 22.2508 70.215 21.4254C71.6313 19.0954 71.5304 15.4676 69.9872 13.2375C68.3828 10.919 66.2774 9.80395 63.5041 9.80395C62.3418 9.80395 61.7812 9.88519 60.9728 10.1704ZM37.4165 25.3437C31.427 26.6083 26.6957 31.3607 25.4586 37.3547C23.4981 46.853 30.8372 55.8339 40.5596 55.8339C44.8166 55.8339 48.6918 54.1799 51.6432 51.1034C54.4861 48.1398 55.9566 44.5042 55.9566 40.4388C55.9566 35.2393 53.3477 30.4132 48.9819 27.5368C45.6594 25.3478 41.3062 24.5224 37.4165 25.3437ZM5.66769 33.0968C4.3281 33.5534 3.154 34.3191 2.30458 35.2899C-2.11381 40.3402 1.40786 48.1384 8.10719 48.1384C11.3223 48.1384 14.2538 46.1918 15.2656 43.385L15.478 42.7958H18.0002H20.5224V40.4388V38.0817H17.981H15.4399L15.3418 37.6355C15.2316 37.1336 14.3473 35.7227 13.7123 35.0355C13.042 34.3102 11.5134 33.3887 10.42 33.051C9.00423 32.6139 7.02833 32.6329 5.66769 33.0968ZM70.5724 33.0968C69.3933 33.4987 68.2025 34.2211 67.485 34.9695C66.8007 35.6834 65.8958 37.096 65.7773 37.6355L65.6793 38.0817H63.1381H60.5967V40.4388V42.7958H63.1381H65.6793L65.7773 43.2421C65.8875 43.7439 66.7718 45.1549 67.4069 45.842C67.6372 46.0914 68.2451 46.5697 68.7574 46.905C72.5863 49.4101 77.9364 47.9965 79.9145 43.957C81.3442 41.0374 80.9454 37.7752 78.8604 35.3363C76.9298 33.0779 73.4141 32.1279 70.5724 33.0968ZM22.9004 54.7173L21.1977 56.4251L20.1529 56.0563C18.0733 55.3223 15.3468 55.6265 13.5083 56.7975C12.6873 57.3204 11.4059 58.6267 10.9041 59.4521C9.5758 61.6374 9.5758 65.1236 10.9041 67.3089C11.4059 68.1343 12.6873 69.4406 13.5083 69.9636C15.9374 71.5107 19.548 71.4664 21.8822 69.8605C23.3813 68.8294 24.4333 67.4408 25.0058 65.7376C25.2989 64.8659 25.3384 64.4743 25.2754 63.0663C25.223 61.8964 25.1075 61.1877 24.8782 60.6307L24.555 59.845L26.2923 58.0929L28.0295 56.3407L26.3637 54.6752C25.4476 53.7591 24.6766 53.0096 24.6505 53.0096C24.6244 53.0096 23.8368 53.7781 22.9004 54.7173ZM54.7217 54.6864L53.0899 56.341L54.818 58.0929L56.5461 59.845L56.179 60.8664C55.4804 62.8097 55.7451 65.5845 56.7931 67.3089C57.2949 68.1343 58.5764 69.4406 59.3973 69.9636C61.8254 71.5101 65.4371 71.4664 67.7689 69.8622C69.2275 68.8587 70.2622 67.5242 70.8316 65.9115C71.527 63.9415 71.2631 61.1764 70.215 59.4521C69.7133 58.6267 68.4318 57.3204 67.6108 56.7975C65.7723 55.6265 63.0458 55.3223 60.9662 56.0563L59.9214 56.4251L58.2187 54.7173C57.2823 53.7781 56.4794 53.0146 56.4348 53.0207C56.3902 53.0267 55.6192 53.7764 54.7217 54.6864ZM38.2022 63.0146V65.5554L37.7559 65.6535C37.254 65.7636 35.8429 66.6478 35.1556 67.2828C34.9062 67.5132 34.4279 68.121 34.0925 68.6332C31.5871 72.4617 33.0009 77.8111 37.0409 79.7889C39.3666 80.9277 41.7844 80.9313 44.0955 79.7998C48.1525 77.8133 49.5367 72.3713 46.96 68.5383C46.1778 67.3747 44.713 66.1456 43.6634 65.7723L42.9169 65.5067V62.99V60.4735H40.5596H38.2022V63.0146Z" fill="white"/>
</svg>
