<svg width="124" height="112" viewBox="0 0 124 112" fill="none" xmlns="http://www.w3.org/2000/svg">
<path d="M123.931 56.1279C123.912 62.5276 118.95 67.8502 112.557 68.3372C111.248 68.4369 109.968 68.3524 108.71 68.0058C108.157 67.8536 107.86 67.9804 107.564 68.4978C103.564 75.4571 99.5428 82.4063 95.5119 89.347C95.2346 89.8238 95.3073 90.1096 95.6709 90.5086C98.9679 94.1201 100.013 98.3099 98.4438 102.951C96.9001 107.518 93.6098 110.274 88.8688 111.16C82.9459 112.267 76.903 108.583 75.104 102.802C74.8605 102.021 74.5376 101.737 73.7057 101.741C65.901 101.771 58.0963 101.769 50.2932 101.742C49.5239 101.739 49.1705 101.949 48.9271 102.723C47.0401 108.74 40.9177 112.35 34.8021 111.108C28.5969 109.846 24.3395 104.172 24.9329 97.8788C25.1967 95.0737 26.2923 92.5984 28.2655 90.561C28.6882 90.1248 28.7643 89.8086 28.4464 89.2608C24.4866 82.4401 20.547 75.6076 16.6227 68.7666C16.2439 68.1072 15.8584 67.8857 15.0654 68.0717C10.081 69.2383 4.57234 66.9439 2.01585 62.695C-0.899087 57.8508 -0.555855 52.2492 3.00328 48.1473C6.16338 44.507 10.1756 43.1104 14.915 44.0421C15.8347 44.223 16.2558 44.0099 16.7038 43.2271C20.5876 36.4267 24.5068 29.6483 28.4363 22.875C28.7254 22.3762 28.7152 22.0752 28.3078 21.6407C24.7858 17.8837 23.9134 12.627 26.0049 7.98748C28.0457 3.45952 32.599 0.646036 37.663 0.786372C42.7455 0.926708 47.3276 4.3827 48.8949 9.33505C49.1502 10.1433 49.4833 10.4239 50.3507 10.4189C58.1267 10.3817 65.9027 10.3867 73.6786 10.4138C74.4801 10.4172 74.8402 10.194 75.0955 9.38746C77.8752 0.642654 88.8908 -2.11166 95.4342 4.27449C100.221 8.94448 100.363 16.7543 95.725 21.5798C95.2989 22.0228 95.2431 22.3305 95.5593 22.8733C99.5546 29.7379 103.531 36.6144 107.484 43.5044C107.831 44.108 108.162 44.2264 108.829 44.0843C116.104 42.5457 122.685 47.1024 123.826 54.4456C123.911 54.9968 123.897 55.5666 123.931 56.1279ZM90.0202 87.1338C90.5816 87.2386 90.7473 86.7939 90.9518 86.4389C94.9404 79.5404 98.9189 72.6352 102.916 65.7401C103.193 65.2616 103.139 64.9505 102.749 64.5701C101.979 63.821 101.352 62.952 100.833 62.0085C98.344 57.4704 98.8022 51.7639 102.686 47.6063C103.055 47.2123 103.21 46.8978 102.901 46.3635C98.8732 39.4211 94.8627 32.4702 90.8656 25.5109C90.5697 24.9969 90.2569 24.8988 89.704 25.0375C87.7309 25.538 85.7425 25.5329 83.771 25.024C83.3094 24.9039 83.0575 24.9902 82.8157 25.4112C78.8035 32.3942 74.7811 39.3721 70.7485 46.3432C70.483 46.8031 70.4425 47.1565 70.8702 47.5251C71.0816 47.706 71.2388 47.9495 71.4197 48.1659C75.481 53.032 75.2917 59.8747 70.9379 64.4889C70.4864 64.9674 70.456 65.3258 70.7772 65.8787C74.71 72.6487 78.6327 79.422 82.5232 86.2157C82.9797 87.012 83.4548 87.3299 84.3358 86.9816C84.6418 86.8599 84.9985 86.87 85.3316 86.8159C86.921 86.5504 88.4731 86.799 90.0202 87.1338ZM37.1946 53.3448C41.168 53.3448 45.1397 53.3364 49.113 53.3533C49.6981 53.355 50.0125 53.2028 50.207 52.5891C52.2309 46.1978 58.1723 42.7097 64.7445 44.0742C65.5172 44.2348 65.8519 44.0133 66.2036 43.3776C67.35 41.3081 68.5555 39.2723 69.7391 37.2231C72.4883 32.4686 75.2359 27.7123 77.9919 22.9612C78.2658 22.4895 78.4315 22.1023 77.9445 21.6204C76.5293 20.2289 75.6011 18.5279 75.038 16.6359C74.8639 16.0492 74.5528 15.8345 73.9492 15.8362C65.9754 15.8497 58.0016 15.8497 50.0295 15.8362C49.414 15.8345 49.1418 16.0594 48.9659 16.6478C48.2981 18.883 47.1128 20.8122 45.3358 22.339C42.1165 25.1051 38.4069 25.9438 34.2898 25.0375C33.7386 24.9158 33.4309 25.0003 33.1316 25.5194C29.1498 32.4584 25.151 39.3873 21.1354 46.3044C20.826 46.837 20.8429 47.1582 21.291 47.5978C22.6639 48.9471 23.6107 50.5804 24.1332 52.4234C24.3462 53.1741 24.7148 53.3618 25.4469 53.355C29.3628 53.3279 33.2787 53.3448 37.1946 53.3448ZM61.9902 96.303C65.9618 96.303 69.9352 96.2928 73.9069 96.3131C74.5443 96.3165 74.8639 96.122 75.038 95.4795C75.5351 93.6552 76.4702 92.0455 77.7653 90.6777C78.2844 90.1299 78.3317 89.7257 77.953 89.0748C73.9881 82.2575 70.0468 75.4267 66.1208 68.5857C65.8029 68.0311 65.5036 67.8823 64.8561 68.0362C58.5291 69.5342 52.1615 65.9041 50.2695 59.7259C50.0616 59.0496 49.7539 58.7858 49.0302 58.7875C41.1139 58.8095 33.1976 58.8061 25.2812 58.7892C24.6235 58.7875 24.3395 59.0428 24.1636 59.6532C23.631 61.4979 22.6808 63.1295 21.3383 64.494C20.8277 65.013 20.8767 65.3698 21.2064 65.9379C25.151 72.7349 29.0788 79.5404 32.9845 86.3594C33.37 87.0323 33.7504 87.2132 34.5367 87.0357C40.8535 85.607 47.1416 89.2929 48.9592 95.4711C49.1452 96.1051 49.4292 96.3199 50.0734 96.3148C54.0451 96.2928 58.0168 96.303 61.9902 96.303ZM62.0578 49.1838C58.2653 49.1669 55.1289 52.1816 55.0917 55.881C55.0511 59.8054 58.0963 62.9537 61.9479 62.9706C65.7691 62.9875 68.8582 59.9508 68.8785 56.1566C68.9005 52.2238 65.9432 49.2007 62.0578 49.1838ZM79.9126 13.0683C79.8974 16.8845 82.9865 19.9955 86.8195 20.0243C90.5427 20.053 93.7011 16.8963 93.7112 13.1343C93.7231 9.2708 90.683 6.22905 86.7992 6.21891C82.9848 6.20707 79.9278 9.24713 79.9126 13.0683ZM12.4041 49.1855C8.54402 49.1821 5.53102 52.1664 5.51242 56.0095C5.49382 59.8865 8.52373 62.9621 12.3754 62.9723C16.1949 62.9824 19.3043 59.8713 19.3043 56.0383C19.3043 52.2729 16.2 49.1889 12.4041 49.1855ZM86.8381 92.1351C82.9797 92.1318 79.9092 95.1904 79.9126 99.0387C79.916 102.828 83 105.925 86.779 105.932C90.6035 105.939 93.7214 102.829 93.7129 99.015C93.7045 95.2276 90.6188 92.1402 86.8381 92.1351ZM104.745 56.0197C104.734 59.8967 107.782 62.9841 111.61 62.9739C115.445 62.9638 118.512 59.8899 118.536 56.0315C118.559 52.2847 115.433 49.1889 111.62 49.1855C107.763 49.1804 104.757 52.168 104.745 56.0197ZM37.2166 92.1351C33.3447 92.1318 30.3333 95.16 30.335 99.0539C30.335 102.88 33.3599 105.917 37.1845 105.934C40.9769 105.951 44.0914 102.841 44.1286 99.0049C44.1624 95.2868 40.9938 92.1368 37.2166 92.1351ZM37.22 6.21722C33.414 6.21214 30.3063 9.25727 30.264 13.0328C30.2234 16.7796 33.4157 20.0124 37.1709 20.0243C40.8704 20.0361 44.066 16.9234 44.1235 13.2543C44.1844 9.39761 41.0699 6.22398 37.22 6.21722Z" fill="white"/>
</svg>
