<svg width="86" height="81" viewBox="0 0 86 81" fill="none" xmlns="http://www.w3.org/2000/svg">
<path d="M80.7356 19.2156V9.02921C80.7356 4.11471 76.7147 0.09375 71.8002 0.09375H9.25193C4.29275 0.09375 0.316467 4.11471 0.316467 9.02921V71.5774C0.316467 76.4919 4.29275 80.5129 9.25193 80.5129H71.8002C76.7147 80.5129 80.7356 76.4919 80.7356 71.5774V61.391C83.3716 59.8273 85.2033 57.0126 85.2033 53.7065V26.9001C85.2033 23.594 83.3716 20.7793 80.7356 19.2156ZM76.2679 26.9001V53.7065H44.9938V26.9001H76.2679ZM9.25193 71.5774V9.02921H71.8002V17.9647H44.9938C40.0793 17.9647 36.0583 21.9856 36.0583 26.9001V53.7065C36.0583 58.621 40.0793 62.642 44.9938 62.642H71.8002V71.5774H9.25193Z" fill="white"/>
</svg>
