<svg width="1930" height="348" viewBox="0 0 1930 348" fill="none" xmlns="http://www.w3.org/2000/svg">
<rect width="1930" height="348" fill="#F5F5F5"/>
<g clip-path="url(#clip0_0_1)">
<rect width="1930" height="14651" transform="translate(0 -4624)" fill="white"/>
<rect x="-1" y="-3813" width="1930" height="12752" fill="#ECEFFE"/>
<rect x="-0.0297852" y="340.766" width="1930.06" height="1268.84" fill="#21429B"/>
<path d="M1954.7 158.211V88.6811C1954.7 88.6811 2073.92 156.408 1954.7 158.211V383.551H-24.5009V280.794C-24.5009 280.794 -18.8149 360.339 243.563 254.774C505.941 149.208 642.409 182.699 882.448 192.76C1122.49 202.821 1126.96 10.7086 1659.83 117.303C1815.58 148.457 1905.47 158.956 1954.7 158.211Z" fill="#74D5FF"/>
<path d="M1954.7 347.254V52.3842C1954.7 52.3842 1920.18 -82.4846 1659.83 81.0059C1399.49 244.496 1109.08 16.6432 882.448 156.463C655.812 296.283 423.49 384.57 243.563 218.477C63.6354 52.3842 -24.5009 244.497 -24.5009 244.497V347.254H1954.7Z" fill="#4BB7E8"/>
<path d="M1954.7 388.77V93.9002C1954.7 93.9002 1954.7 -13.3253 1659.83 122.522C1364.96 258.369 1226.46 286.013 882.448 197.979C538.433 109.946 525.03 339.625 243.563 259.993C-37.9041 180.36 -24.5009 286.013 -24.5009 286.013V388.77H1954.7Z" fill="#21429B"/>
</g>
<defs>
<clipPath id="clip0_0_1">
<rect width="1930" height="14651" fill="white" transform="translate(0 -4624)"/>
</clipPath>
</defs>
</svg>
