<svg width="1930" height="348" viewBox="0 0 1930 348" fill="none" xmlns="http://www.w3.org/2000/svg">
<rect width="1930" height="348" fill="#F5F5F5"/>
<g clip-path="url(#clip0_0_1)">
<rect width="1930" height="14651" transform="translate(0 -8476)" fill="white"/>
<rect x="-1" y="-7665" width="1930" height="12752" fill="#ECEFFE"/>
<rect y="307" width="1930" height="3384" fill="#21429B"/>
<path d="M293.427 490.118C294.059 496.918 288.01 629.528 286.908 633.637C286.207 633.432 285.424 633.369 284.829 633.001C281.645 631.031 278.508 628.985 275.086 626.798C276.047 605.18 277.028 583.609 277.965 562.034C278.897 540.639 279.794 519.245 280.73 497.33C264.324 486.835 247.916 476.335 230.766 465.363C228.454 515.661 226.366 565.327 224.16 615.203C245.091 628.575 265.795 641.8 286.723 655.167C285.504 682.419 284.297 709.407 283.106 736.036C279.518 738.934 168.116 797.493 157.874 801.946C157.081 802.291 156.164 802.359 154.753 802.678C154.446 797.818 154.787 793.428 155.41 788.467C164.781 783.303 174.518 778.445 184.15 773.405C193.651 768.432 203.177 763.508 212.693 758.564C222.376 753.533 232.059 748.502 241.742 743.471C251.242 738.535 260.741 733.599 270.587 728.483C271.451 709.066 272.301 689.812 273.183 669.962C228.461 693.198 184.294 716.147 139.796 739.267C138.69 763.551 137.576 787.921 136.478 811.983C132.917 815.141 71.3092 847.549 63.6901 850.272C23.8027 824.779 -16.4806 799.032 -57.2966 772.946C-55.8792 771.971 -55.1781 771.39 -54.3923 770.971C-51.2536 769.299 -48.0913 767.682 -44.5895 765.863C-8.23013 789.084 27.9987 812.223 64.2648 835.385C81.8512 826.247 99.1486 817.26 116.947 808.012C74.7606 781.051 33.0078 754.366 -8.89437 727.583C-30.801 738.965 -52.4715 750.225 -73.8367 761.326C-77.9899 759.901 -136.743 722.88 -143.66 717.411C-141.553 670.021 -139.43 622.364 -137.287 574.169C-132.37 575.957 -128.792 578.833 -124.778 581.613C-126.676 624.577 -128.576 667.548 -130.492 710.946C-114.2 721.362 -97.9333 731.759 -81.1213 742.509C-80.768 740.8 -80.3591 739.636 -80.3055 738.455C-78.5018 698.833 -76.7328 659.213 -74.9598 619.59C-74.6557 612.831 -74.3579 606.069 -74.0682 599.311C-73.9882 597.445 -73.9574 595.583 -73.8886 593.128C-94.2958 579.609 -115.289 566.823 -136.367 553.017C-135.173 526.046 -133.967 498.888 -132.739 471.373C-90.8275 449.596 -49.1214 427.921 -7.39432 406.277C-6.62066 405.875 -5.66511 405.823 -4.2626 405.477C-4.09146 410.315 -4.45243 414.716 -4.83139 418.883C-9.12387 422.396 -96.3314 468.224 -120.04 479.472C-121.34 498.578 -121.687 518.073 -122.791 537.397C-122.526 537.637 -122.425 537.791 -122.291 537.84C-122.122 537.897 -121.902 537.923 -121.749 537.859C-121.052 537.579 -120.35 537.307 -119.686 536.962C-76.4528 514.505 -33.2218 492.042 10.4206 469.367C11.5482 444.834 12.6757 420.292 13.8104 395.554C37.9281 383.023 61.9115 370.562 86.3671 357.855C126.505 383.492 166.697 409.163 207.326 435.118C203.496 438.675 199.118 440.122 194.719 442.284C158.474 419.143 122.241 396.006 85.8856 372.793C68.5191 381.816 51.3683 390.727 33.8023 399.854C34.741 400.705 35.5294 401.655 36.5222 402.292C68.1937 422.552 99.883 442.777 131.566 463.01C139.803 468.274 148.028 473.554 156.263 478.814C157.2 479.412 158.177 479.949 159.428 480.685C181.265 469.338 203.099 457.994 225.144 446.54C248.124 461.209 270.907 475.747 293.427 490.118ZM16.6668 481.14C-27.7655 504.226 -71.7621 527.085 -116.553 550.358C-99.7874 561.147 -83.5617 571.545 -66.9716 582.017C-28.5291 562.043 9.81986 542.118 48.124 522.216C52.5349 524.515 56.551 526.631 60.4903 530.281C19.6657 551.493 -20.5075 572.366 -60.9412 593.375C-63.1657 643.364 -65.3782 693.069 -67.6131 743.317C-49.7784 734.05 -32.4973 725.071 -14.9313 715.944C-13.0255 672.826 -11.1178 629.69 -9.21156 586.602C-5.01708 584.185 -1.42944 581.546 3.79028 580.534C3.05693 603.487 1.83156 625.94 0.899759 648.401C-0.0407716 671.094 -1.06356 693.778 -2.05311 716.486C0.974473 718.511 3.59032 720.321 6.26631 722.037C19.8741 730.761 33.502 739.453 47.1219 748.16C71.354 763.646 95.578 779.137 119.824 794.601C121.13 795.432 122.606 796.004 124.348 796.867C125.223 776.886 126.072 757.58 126.92 738.161C90.3011 714.759 53.929 691.514 17.6357 668.32C18.011 663.389 17.4494 658.915 18.8683 653.912C57.3995 678.497 95.5163 702.822 133.322 726.946C144.225 722.361 262.883 660.27 266.292 657.366C250.102 647.027 233.966 636.723 217.498 626.207C215.422 627.286 213.443 628.315 211.464 629.343C176.91 647.296 142.358 665.254 107.796 683.191C105.833 684.211 103.771 685.04 101.81 685.934C97.7703 683.324 93.6008 681.639 90.0266 677.705C92.393 676.388 94.2803 675.273 96.2267 674.262C132.613 655.346 169.003 636.438 205.393 617.53C207.364 616.506 209.335 615.482 211.347 614.437C213.514 564.477 215.669 515.041 217.847 465.081C199.821 474.447 182.528 483.432 165.214 492.428C164.223 514.258 163.233 535.839 162.263 557.42C161.294 578.964 160.605 600.519 159.35 621.969C154.941 624.104 151.557 627.145 146.37 627.622C148.372 581.951 150.351 536.773 152.333 491.562C110.315 464.715 68.5559 438.039 25.9741 410.833C25.0622 431.263 24.1967 450.706 23.3304 470.098C59.9138 493.472 96.1573 516.63 132.403 539.791C132.437 544.685 132.816 549.265 131.338 554.323C92.7325 529.684 54.5908 505.342 16.6668 481.14Z" fill="url(#paint0_linear_0_1)"/>
<path d="M2567.72 85.2497V31.6708C2567.72 31.6708 2620.1 71.2044 2567.72 85.2497V214H243.277V150.461C243.277 150.461 75.3156 49.3686 558.1 134.372C1040.88 219.376 1308.43 96.0267 1308.43 96.0267C1308.43 96.0267 1717.72 -51.7235 2221.41 49.3686C2434.53 92.1417 2529.3 95.5511 2567.72 85.2497Z" fill="#74D5FF"/>
<path d="M1954.7 347.153V52.2831C1954.7 52.2831 1920.18 -82.5857 1659.83 80.9048C1399.49 244.395 1350.9 231.819 882.448 156.362C414 80.9048 423.49 384.468 243.563 218.376C63.6354 52.2831 -24.501 244.396 -24.501 244.396V347.153H1954.7Z" fill="#4BB7E8"/>
<path d="M-24.6023 348.67V53.7996C-24.6023 53.7996 -24.6023 -53.4259 270.268 82.4213C565.138 218.269 703.638 245.912 1047.65 157.879C1391.67 69.8451 1405.07 299.525 1686.54 219.892C1968.01 140.26 1954.6 245.912 1954.6 245.912V348.67H-24.6023Z" fill="#21429B"/>
</g>
<defs>
<linearGradient id="paint0_linear_0_1" x1="146.893" y1="376.983" x2="3.35407" y2="831.21" gradientUnits="userSpaceOnUse">
<stop stop-color="#20419A"/>
<stop offset="0.4944" stop-color="#4366B0"/>
<stop offset="1" stop-color="#4BBBEB"/>
</linearGradient>
<clipPath id="clip0_0_1">
<rect width="1930" height="14651" fill="white" transform="translate(0 -8476)"/>
</clipPath>
</defs>
</svg>
