<svg width="248" height="370" viewBox="0 0 248 370" fill="none" xmlns="http://www.w3.org/2000/svg">
<path d="M319.321 1.00952C322.937 5.66176 380.084 104.911 381.189 108.411C380.584 108.587 379.985 108.904 379.382 108.912C376.152 108.958 372.921 108.926 369.417 108.924C360.083 92.7556 350.785 76.6128 341.454 60.4875C332.201 44.4947 322.925 28.5199 313.435 12.1474C296.632 12.1285 279.827 12.1076 262.262 12.0874C283.924 49.7407 305.456 86.8293 327 124.126C348.428 124.137 369.623 124.146 391.047 124.154C402.808 144.54 414.456 164.727 425.948 184.646C424.684 188.418 370.843 282.709 365.462 290.701C365.045 291.32 364.41 291.794 363.532 292.682C361.053 289.289 359.263 285.938 357.414 282.041C361.833 273.937 366.659 265.885 371.325 257.749C375.927 249.723 380.57 241.721 385.195 233.708C389.902 225.556 394.609 217.403 399.317 209.25C403.934 201.251 408.552 193.253 413.339 184.963C404.955 170.441 396.637 156.044 388.066 141.198C366.326 178.853 344.856 216.041 323.225 253.507C333.69 271.681 344.19 289.921 354.559 307.93C353.435 311.88 323.671 364.041 319.394 369.558C278.554 369.53 237.308 369.501 195.518 369.473C196.096 368.106 196.336 367.358 196.713 366.689C198.22 364.016 199.769 361.372 201.472 358.424C238.692 358.437 275.778 358.451 312.903 358.464C321.452 343.657 329.86 329.093 338.512 314.107C295.319 314.078 252.569 314.049 209.665 314.018C199.016 332.463 188.482 350.709 178.096 368.698C174.414 369.59 114.503 369.934 106.935 369.166C86.473 333.724 65.8989 298.079 45.0901 262.034C49.4953 261.053 53.4327 261.484 57.6417 261.642C76.2018 293.77 94.7633 325.903 113.511 358.353C130.193 358.367 146.849 358.379 164.065 358.394C163.529 356.987 163.286 355.951 162.777 355.068C145.699 325.415 128.598 295.78 111.498 266.141C108.582 261.084 105.661 256.028 102.735 250.979C101.927 249.585 101.085 248.216 99.9959 246.399C78.8803 246.038 57.679 246.483 35.9419 246.225C24.2932 226.056 12.5661 205.745 0.688539 185.165C21.0626 149.876 41.3342 114.756 61.6352 79.6493C62.0113 78.9979 62.6822 78.5166 63.5415 77.614C65.9113 81.0529 67.6913 84.4211 69.3498 87.6277C67.8581 92.1743 25.705 165.977 13.6832 185.161C21.6051 199.659 30.4001 213.998 38.5661 228.564C38.8698 228.616 39.0148 228.681 39.1352 228.655C39.2846 228.617 39.4563 228.534 39.5379 228.416C39.9154 227.889 40.2997 227.366 40.6223 226.807C61.6411 190.409 82.6565 154.01 103.872 117.264C93.3062 98.899 82.7357 80.5269 72.08 62.0096C83.804 41.703 95.4627 21.5096 107.351 0.918375C148.44 0.934674 189.584 0.950719 231.178 0.970679C230.043 5.3347 227.531 8.41909 225.335 12.0332C188.235 12.0253 151.147 12.0146 113.933 12.0053C105.491 26.6276 97.1541 41.0682 88.6149 55.8584C89.6926 56.0418 90.7069 56.3668 91.7246 56.3693C124.161 56.4045 156.594 56.4058 189.026 56.416C197.459 56.4211 205.892 56.444 214.321 56.4472C215.281 56.4479 216.24 56.3848 217.491 56.3392C228.107 37.9525 238.721 19.5692 249.437 1.0077C272.957 1.01059 296.274 1.01015 319.321 1.00952ZM113.878 122.927C92.279 160.338 70.8915 197.382 49.118 235.095C66.3182 235.161 82.9442 235.192 99.8697 235.108C118.557 202.74 137.199 170.451 155.82 138.2C160.094 137.825 163.997 137.5 168.556 138.327C148.711 172.7 129.182 206.525 109.527 240.569C131.109 277.957 152.568 315.132 174.264 352.713C182.934 337.696 191.334 323.146 199.873 308.356C181.248 276.113 162.615 243.857 144.004 211.636C145.933 207.931 147.317 204.347 150.644 201.189C160.763 218.221 170.292 235.119 180.039 251.887C189.887 268.827 199.671 285.799 209.49 302.772C212.632 302.84 215.374 302.942 218.117 302.949C232.062 302.977 246.007 302.974 259.953 302.985C284.764 303.001 309.57 303.025 334.381 303.018C335.716 303.016 337.055 302.747 338.722 302.567C330.085 287.629 321.743 273.194 313.347 258.679C275.855 258.655 238.614 258.629 201.455 258.606C199.44 254.846 196.954 251.852 195.665 247.556C235.097 247.552 274.107 247.552 312.798 247.551C318.599 239.157 376.077 138.93 377.209 135.236C360.636 135.231 344.118 135.225 327.262 135.221C326.253 136.969 325.291 138.636 324.329 140.302C307.531 169.396 290.738 198.491 273.927 227.577C272.973 229.23 271.857 230.789 270.847 232.349C266.697 232.326 262.883 233.036 258.458 231.834C259.567 229.778 260.423 228.091 261.369 226.452C279.052 195.808 296.742 165.168 314.432 134.528C315.39 132.869 316.348 131.21 317.326 129.516C295.715 92.1763 274.338 55.2229 252.735 17.8782C243.972 33.0558 235.566 47.6164 227.149 62.1941C236.56 78.5299 245.856 94.6849 255.167 110.83C264.461 126.948 273.963 142.943 283.006 159.126C280.791 162.725 279.741 166.507 276.19 169.261C256.45 135.117 236.921 101.343 217.38 67.5429C174.362 67.5192 131.612 67.4991 88.0174 67.4764C96.8356 82.7569 105.23 97.299 113.6 111.804C151.054 111.824 188.16 111.845 225.269 111.868C227.565 115.41 229.966 118.566 231.24 122.93C191.728 122.929 152.691 122.927 113.878 122.927Z" fill="url(#paint0_linear_0_25)"/>
<defs>
<linearGradient id="paint0_linear_0_25" x1="160.247" y1="-13.2617" x2="266.667" y2="383.697" gradientUnits="userSpaceOnUse">
<stop stop-color="#395EC2"/>
<stop offset="0.4944" stop-color="#4366B0"/>
<stop offset="1" stop-color="#4BBBEB"/>
</linearGradient>
</defs>
</svg>
