<svg width="166" height="185" viewBox="0 0 166 185" fill="none" xmlns="http://www.w3.org/2000/svg">
<path d="M76.8058 0.022117C79.2336 0.835042 123.792 22.9902 125.034 23.9904C124.858 24.1998 124.717 24.4586 124.501 24.6068C123.343 25.4007 122.167 26.1665 120.899 27.0088C113.631 23.4056 106.382 19.8029 99.126 16.2145C91.93 12.655 84.7297 9.10782 77.3564 5.46823C71.273 9.50473 65.1879 13.5413 58.8283 17.7608C75.7265 26.1704 92.4414 34.4071 109.211 42.7162C116.966 37.5637 124.636 32.4664 132.389 27.314C141.55 31.8588 150.622 36.3593 159.572 40.8003C160.023 42.4695 163.235 89.5389 163.211 93.7253C163.209 94.0494 163.093 94.3739 162.989 94.9062C161.276 94.2754 159.822 93.4938 158.215 92.5289C157.864 88.5334 157.672 84.4589 157.402 80.3929C157.136 76.3817 156.89 72.3693 156.635 68.3574C156.376 64.2751 156.117 60.1928 155.858 56.1105C155.604 52.1055 155.35 48.1004 155.087 43.9495C148.559 40.713 142.085 37.5058 135.412 34.1976C136.608 53.052 137.789 71.6729 138.979 90.4329C147.139 94.4897 155.327 98.5619 163.412 102.582C163.956 104.282 165.74 130.315 165.52 133.34C150.738 143.158 135.809 153.073 120.683 163.119C120.564 162.486 120.47 162.157 120.446 161.825C120.348 160.495 120.272 159.166 120.178 157.689C133.647 148.738 147.068 139.818 160.502 130.889C160.032 123.475 159.569 116.182 159.093 108.678C143.46 119.062 127.986 129.339 112.457 139.652C113.043 148.888 113.622 158.024 114.194 167.032C113.076 168.24 91.4841 182.782 88.5613 184.325C72.6294 176.427 56.6085 168.482 40.4062 160.449C41.7639 159.034 43.2921 158.242 44.8529 157.287C59.2989 164.444 73.7467 171.602 88.3385 178.831C94.3771 174.821 100.406 170.818 106.638 166.68C106.105 166.3 105.768 165.984 105.371 165.787C92.0573 159.168 78.7387 152.562 65.4201 145.954C63.1481 144.826 60.8744 143.7 58.601 142.578C57.9731 142.267 57.3394 141.975 56.5079 141.58C48.7817 146.53 41.2184 151.793 33.2922 156.931C24.2242 152.437 15.0939 147.911 5.84423 143.323C4.7233 125.653 3.60609 108.07 2.50251 90.483C2.48182 90.1568 2.60872 89.8213 2.7024 89.2879C4.38731 89.9619 5.84181 90.7521 7.21346 91.5131C7.76792 93.5169 10.2776 130.362 10.5447 140.195C16.8995 143.534 23.532 146.605 29.9915 149.91C30.1139 149.855 30.1821 149.844 30.2193 149.806C30.2644 149.756 30.3063 149.685 30.3076 149.622C30.3173 149.341 30.3304 149.059 30.3127 148.779C29.1582 130.553 28.002 112.327 26.8347 93.9275C18.5929 89.826 10.3476 85.7229 2.03644 81.5878C1.39141 71.4198 0.749974 61.3085 0.0959061 50.9981C14.9653 41.1162 29.8545 31.2211 44.9075 21.219C45.5471 23.0709 45.3806 24.7913 45.4557 26.6273C32.0316 35.5522 18.6108 44.4735 5.14534 53.4252C5.60981 60.7469 6.0685 67.9776 6.53831 75.3834C6.97236 75.1904 7.41752 75.0639 7.7863 74.8199C19.5297 67.0271 31.2638 59.2229 42.9999 51.4219C46.0522 49.3944 49.1084 47.3735 52.1589 45.3461C52.5062 45.1155 52.8382 44.8618 53.2798 44.5442C52.6958 35.3376 52.1118 26.1327 51.5222 16.8385C60.0323 11.1796 68.4678 5.56845 76.8058 0.022117ZM31.8177 93.5683C33.006 112.301 34.1827 130.85 35.3807 149.733C41.6193 145.618 47.6419 141.628 53.7452 137.525C52.7171 121.318 51.6914 105.15 50.667 89.0012C52.1233 87.8368 53.4571 86.78 55.3054 85.982C56.3973 103.194 57.4717 120.13 58.5531 137.177C75.3586 145.51 92.068 153.795 108.961 162.171C108.484 154.651 108.021 147.366 107.552 139.96C93.054 132.777 78.551 125.591 64.0641 118.413C63.8703 116.608 63.5085 114.978 63.9521 113.035C71.7118 116.762 79.2258 120.583 86.787 124.303C94.4263 128.062 102.05 131.848 109.687 135.626C110.84 134.894 111.857 134.271 112.851 133.614C117.903 130.268 122.947 126.911 127.995 123.559C136.975 117.595 145.956 111.634 154.93 105.661C155.413 105.339 155.832 104.919 156.392 104.453C149.673 101.127 143.181 97.9122 136.65 94.6811C123.08 103.695 109.601 112.647 96.1519 121.581C94.5179 120.705 92.8984 120.22 91.3979 118.976C105.663 109.486 119.776 100.098 133.774 90.7873C133.853 86.3543 130.529 36.262 130.049 34.6533C124.052 38.6395 118.075 42.6124 111.976 46.6671C112.031 47.5426 112.084 48.3769 112.137 49.2112C113.061 63.7791 113.987 78.3468 114.904 92.9151C114.957 93.7425 114.929 94.5751 114.939 95.3828C113.432 96.3729 112.222 97.5476 110.332 98.1777C110.239 97.1667 110.142 96.3506 110.09 95.5301C109.114 80.1882 108.14 64.8462 107.167 49.5041C107.114 48.6732 107.062 47.8424 107.008 46.9943C90.204 38.6857 73.5777 30.4605 56.7752 22.1483C57.2573 29.7481 57.7198 37.0389 58.1829 44.3383C65.5187 47.9837 72.7694 51.5914 80.0231 55.1921C87.2643 58.7866 94.5513 62.2869 101.717 65.9655C101.782 67.8005 102.312 69.4215 101.69 71.2725C86.3317 63.6701 71.139 56.1504 55.9355 48.6244C40.3665 58.9677 24.8952 69.248 9.11792 79.7304C15.9854 83.1366 22.5218 86.3777 29.0405 89.6113C42.5956 80.6057 56.025 71.6839 69.4562 62.762C71.1394 63.4911 72.7674 64.0549 74.2783 65.3276C59.9831 74.8352 45.8599 84.2285 31.8177 93.5683Z" fill="url(#paint0_linear_0_27)"/>
<defs>
<linearGradient id="paint0_linear_0_27" x1="15.8205" y1="33.139" x2="149.847" y2="151.144" gradientUnits="userSpaceOnUse">
<stop stop-color="#395EC2"/>
<stop offset="0.4944" stop-color="#4366B0"/>
<stop offset="1" stop-color="#4BBBEB"/>
</linearGradient>
</defs>
</svg>
