<svg width="298" height="343" viewBox="0 0 298 343" fill="none" xmlns="http://www.w3.org/2000/svg">
<mask id="mask0_0_95" style="mask-type:alpha" maskUnits="userSpaceOnUse" x="1" y="0" width="297" height="343">
<path d="M148.667 0.862231C153.054 2.64122 232.741 48.6441 234.918 50.6325C234.569 50.9987 234.28 51.4603 233.864 51.7089C231.637 53.0411 229.377 54.3193 226.94 55.7281C213.942 48.244 200.978 40.763 187.999 33.3076C175.127 25.9124 162.247 18.5395 149.057 10.9761C137.367 17.7269 125.674 24.4777 113.453 31.5344C143.673 48.9942 173.574 66.1141 203.567 83.3738C218.47 74.7553 233.211 66.2292 248.11 57.6107C264.495 67.0499 280.72 76.3971 296.728 85.6205C297.368 88.7526 297.891 175.987 297.366 183.71C297.325 184.308 297.075 184.894 296.822 185.864C293.733 184.503 291.139 182.894 288.284 180.928C288.094 173.515 288.209 165.973 288.178 158.438C288.146 151.005 288.153 143.572 288.144 136.139C288.135 128.576 288.126 121.012 288.116 113.449C288.107 106.028 288.098 98.6079 288.089 90.9172C276.414 84.1948 264.835 77.5328 252.899 70.6613C252.942 105.594 252.984 140.094 253.026 174.852C267.619 183.275 282.262 191.731 296.721 200.078C297.53 203.277 297.833 251.527 297.08 257.084C268.673 273.505 239.983 290.089 210.914 306.892C210.767 305.709 210.632 305.092 210.625 304.475C210.597 302.011 210.61 299.549 210.606 296.813C236.491 281.839 262.283 266.919 288.101 251.984C288.084 238.247 288.067 224.735 288.05 210.833C258.007 228.201 228.271 245.39 198.428 262.64C198.448 279.751 198.469 296.679 198.489 313.367C196.288 315.469 154.771 339.826 149.2 342.339C120.705 325.933 92.0508 309.432 63.0722 292.747C65.7402 290.291 68.6513 289.006 71.6416 287.422C97.4795 302.288 123.321 317.158 149.42 332.174C161.024 325.467 172.609 318.771 184.586 311.851C183.647 311.089 183.061 310.466 182.351 310.057C158.54 296.314 134.719 282.593 110.899 268.869C106.835 266.527 102.769 264.187 98.7023 261.855C97.579 261.21 96.4431 260.598 94.9539 259.773C80.1271 268.022 65.5649 276.866 50.3473 285.437C34.1286 276.103 17.7985 266.702 1.2552 257.174C1.21536 224.436 1.17253 191.857 1.15514 159.274C1.15441 158.67 1.42714 158.065 1.66125 157.092C4.69334 158.529 7.28684 160.154 9.73082 161.716C10.524 165.478 10.9251 233.762 10.289 251.94C21.6333 258.831 33.5208 265.261 45.0622 272.101C45.2942 272.015 45.4214 272.002 45.4944 271.935C45.5834 271.849 45.6691 271.722 45.6785 271.607C45.7287 271.089 45.7853 270.57 45.7847 270.052C45.7468 236.283 45.7057 202.515 45.6642 168.425C30.9251 159.909 16.1796 151.39 1.31635 142.805C1.29343 123.966 1.27063 105.232 1.24738 86.1295C29.8231 69.6001 58.4369 53.0483 87.3653 36.318C88.333 39.8092 87.8281 42.965 87.7559 46.3619C61.9574 61.2914 36.1653 76.2144 10.2873 91.1884C10.3038 104.754 10.3201 118.15 10.3368 131.872C11.16 131.565 11.9961 131.383 12.7047 130.975C35.2716 117.942 57.8227 104.887 80.3769 91.8379C86.2427 88.4465 92.1148 85.0679 97.9774 81.6766C98.6447 81.291 99.2865 80.8608 100.138 80.3254C100.117 63.2678 100.097 46.2133 100.076 28.9935C116.43 19.5272 132.642 10.1405 148.667 0.862231ZM54.9014 168.334C54.9436 203.041 54.9854 237.407 55.028 272.394C67.0138 265.516 78.5864 258.845 90.321 251.973C90.2845 221.945 90.248 191.99 90.2116 162.07C93.0329 160.088 95.6159 158.291 99.1184 157.03C99.1572 188.919 99.1954 220.299 99.2339 251.883C129.291 269.19 159.177 286.399 189.39 303.795C189.373 289.864 189.357 276.366 189.34 262.644C163.41 247.724 137.47 232.797 111.559 217.886C111.408 214.534 110.928 211.484 111.97 207.949C125.862 215.719 139.29 223.631 152.817 231.366C166.484 239.18 180.119 247.042 193.779 254.891C195.991 253.673 197.939 252.64 199.848 251.541C209.556 245.947 219.25 240.331 228.951 234.724C246.209 224.748 263.466 214.778 280.714 204.786C281.642 204.247 282.464 203.521 283.551 202.725C271.532 195.815 259.921 189.137 248.24 182.424C222.162 197.5 196.258 212.474 170.412 227.417C167.497 225.614 164.564 224.533 161.938 222.064C189.354 206.188 216.477 190.485 243.378 174.908C244.033 166.736 243.65 73.9104 242.95 70.8865C231.425 77.5544 219.938 84.1999 208.216 90.9826C208.218 92.6047 208.22 94.1505 208.222 95.6962C208.255 122.687 208.291 149.678 208.311 176.668C208.313 178.201 208.165 179.735 208.091 181.226C205.196 182.881 202.829 184.91 199.269 185.855C199.213 183.979 199.128 182.462 199.126 180.942C199.085 152.516 199.051 124.091 199.016 95.6661C199.014 94.1267 199.012 92.5873 199.011 91.016C168.953 73.7532 139.214 56.665 109.16 39.3958C109.177 53.4764 109.194 66.9844 109.21 80.5084C122.33 88.0782 135.296 95.5687 148.269 103.046C161.22 110.511 174.266 117.808 187.068 125.419C186.977 128.813 187.769 131.866 186.409 135.21C158.939 119.417 131.764 103.795 104.571 88.1603C74.6508 105.461 44.9185 122.657 14.5983 140.19C26.8809 147.265 38.5716 153.997 50.2305 160.713C76.2801 145.649 102.088 130.726 127.899 115.803C130.922 117.342 133.862 118.569 136.504 121.092C109.031 136.996 81.8883 152.71 54.9014 168.334Z" fill="url(#paint0_linear_0_95)" fill-opacity="0.25"/>
</mask>
<g mask="url(#mask0_0_95)">
<rect x="-76.8771" y="-41.7485" width="292.636" height="265.83" fill="#D9D9D9"/>
</g>
<defs>
<linearGradient id="paint0_linear_0_95" x1="32.3173" y1="54.9765" x2="266.111" y2="288.141" gradientUnits="userSpaceOnUse">
<stop stop-color="#20419A"/>
<stop offset="0.4944" stop-color="#4366B0"/>
<stop offset="1" stop-color="#4BBBEB"/>
</linearGradient>
</defs>
</svg>
